<svg id="full_screen_icon" data-name="full screen icon" xmlns="http://www.w3.org/2000/svg" width="209.88" height="209.88" viewBox="0 0 636 636">
  <defs>
    <style>
      .cls-1 {
        fill: #fff;
        fill-rule: evenodd;
      }
    </style>
  </defs>
  <path id="Color_Fill_13" data-name="Color Fill 13" class="cls-1" d="M631.008,635.005H558.054a4.954,4.954,0,0,1-1.818-.354H443a5,5,0,0,1-5-5v-73a5,5,0,0,1,5-5H553.057V442.005a5,5,0,0,1,5-5h72.954a5,5,0,0,1,5,5v188A5,5,0,0,1,631.008,635.005Zm-0.2-464.845s-51.178-53.012-53.13-51.059L477.274,219.51a5,5,0,0,1-7.072,0l-53.74-53.74a5,5,0,0,1,0-7.071L516.872,58.29c1.952-1.953-51.059-53.13-51.059-53.13a5,5,0,0,1,5-5h160a5,5,0,0,1,5,5v160A5,5,0,0,1,630.813,170.16ZM119.524,577.209c-1.952,1.952,51,53.068,51,53.068a5,5,0,0,1-5,5l-159.87.059A4.992,4.992,0,0,1,.66,630.34L0.72,470.471a5,5,0,0,1,5-5s51.116,52.949,53.067,51l100.339-100.34a5,5,0,0,1,7.066,0l53.676,53.676a5,5,0,0,1,0,7.065Zm74.6-493.86H84V193a5,5,0,0,1-5,5h-73a5,5,0,0,1-5-5V5a5,5,0,0,1,5-5H79a4.968,4.968,0,0,1,1.819.354H194.12a5,5,0,0,1,5,5v73A5,5,0,0,1,194.12,83.349Z"/>
</svg>
