<svg xmlns="http://www.w3.org/2000/svg" width="1379" height="423" viewBox="0 0 1379 423">
  <defs>
    <style>
      .cls-1, .cls-5 {
        fill: #fff;
      }

      .cls-1, .cls-2, .cls-3 {
        fill-rule: evenodd;
      }

      .cls-3, .cls-4, .cls-5 {
        stroke: #fff;
      }

      .cls-3 {
        stroke-width: 6px;
      }

      .cls-4 {
        stroke-width: 8px;
      }

      .cls-5 {
        stroke-width: 3.68px;
      }
    </style>
  </defs>
  <path id="BOXING_HERO" data-name="BOXING HERO" class="cls-1" d="M82.164,3.57H0.775V208.963H83.23a27.285,27.285,0,0,0,17.948-6.866q8.172-6.864,12.884-19.256t4.709-28.51q0-42.387-23.279-51.348v-1.2q20.434-9.851,20.436-47.765A71.086,71.086,0,0,0,111.4,28.05Q106.864,16.407,99.135,9.989A25.993,25.993,0,0,0,82.164,3.57h0ZM40.048,48.649H67.059q3.732,0,6.4,4.627a22.1,22.1,0,0,1,2.666,11.2v2.985A23.37,23.37,0,0,1,73.545,78.95q-2.578,4.632-6.486,4.627H40.048V48.649Zm0,77.321H69.9q3.907,0,6.486,4.627a23.4,23.4,0,0,1,2.577,11.494v2.985a23.369,23.369,0,0,1-2.577,11.494Q73.81,161.2,69.9,161.2H40.048V125.97ZM199.8-.012q-31.632,0-48.78,27.018t-17.148,79.262q0,52.245,17.148,79.261t48.78,27.018q31.629,0,48.869-27.167t17.237-79.112q0-51.946-17.237-79.113T199.8-.012h0Zm0,49.258q12.615,0,19.281,12.837t6.664,34.63V115.82q0,21.8-6.664,34.63T199.8,163.287q-12.62,0-19.192-12.837t-6.575-34.63V96.713q0-21.789,6.575-34.63T199.8,49.246h0Zm159.4,51.348L398.834,3.57H354.941L336.282,56.112h-0.711L317.09,3.57H269.643l39.45,96.726L265.378,208.963h44.071l22.568-63.887h0.711L355.3,208.963h47.625Zm97.915,108.369V3.57H417.848V208.963h39.273Zm149.8,0V3.57H570.851v101.2L519.494,3.57H485.2V208.963h36.074V109.252l51.357,99.711h34.3ZM694.709-.012q-31.986,0-49.313,27.018T628.07,106.267q0,52.841,15.283,79.559t45.67,26.72q27.009,0,43.715-23.883l3.909,20.3h20.259V94.325H691.688V136.12H719.41q0,11.945-6.753,19.554a21.082,21.082,0,0,1-16.349,7.613q-13.86,0-20.969-12.389t-7.108-35.078V96.713q0-22.684,7.108-35.078t20.969-12.389q9.6,0,16.349,7.911t6.753,20.748h37.5q0-25.077-8.264-42.542t-22.3-26.42A57.566,57.566,0,0,0,694.709-.012h0ZM962.151,208.963V3.57H922.879V78.5H879.7V3.57H840.424V208.963H879.7V131.045h43.182v77.918h39.272Zm26.3,0H1095.43V159.705h-67.71V128.358h56.87V81.19h-56.87V52.829h66.46V3.57H988.451V208.963Zm244.339-142.4a101.3,101.3,0,0,0-4.71-31.5q-4.71-14.477-14.04-22.987a32.183,32.183,0,0,0-22.48-8.508h-74.81V208.963h39.27V134.03h14.57l21.68,74.933h44.08l-27.19-85.978q11.55-7.165,17.59-22.391a91.518,91.518,0,0,0,6.04-34.033h0Zm-39.98,2.687a26.735,26.735,0,0,1-3.2,13.583q-3.195,5.528-7.82,5.523h-25.77V50.44h25.77q4.62,0,7.82,5.374t3.2,13.434h0ZM1312.76-.012q-31.635,0-48.78,27.018-17.16,27.022-17.15,79.262t17.15,79.261q17.145,27.023,48.78,27.018,31.62,0,48.87-27.167,17.235-27.162,17.23-79.112t-17.23-79.113Q1344.38-.008,1312.76-0.012h0Zm0,49.258q12.615,0,19.28,12.837t6.66,34.63V115.82q0,21.8-6.66,34.63t-19.28,12.837q-12.615,0-19.19-12.837t-6.58-34.63V96.713q0-21.789,6.58-34.63t19.19-12.837h0Z"/>
  <path id="Color_Fill_5" data-name="Color Fill 5" class="cls-1" d="M121,245.675H1261L1161,357.094H221Z"/>
  <path id="Color_Fill_6" data-name="Color Fill 6" class="cls-2" d="M259.625,276.625l6.7,20.771,21.827-.042-17.683,12.8,6.784,20.745-17.633-12.863L241.991,330.9l6.785-20.745-17.683-12.8L252.92,297.4Zm82,0,6.7,20.771,21.827-.042-17.683,12.8,6.784,20.745-17.633-12.863L323.991,330.9l6.785-20.745-17.683-12.8L334.92,297.4Zm82,0,6.7,20.771,21.827-.042-17.683,12.8,6.784,20.745-17.633-12.863L405.991,330.9l6.785-20.745-17.683-12.8L416.92,297.4Zm82,0L512.33,297.4l21.827-.042-17.683,12.8,6.784,20.745-17.633-12.863L487.991,330.9l6.785-20.745-17.683-12.8L498.92,297.4Zm595.995-4,6.71,20.771,21.83-.042-17.69,12.8,6.79,20.745-17.64-12.863L1083.99,326.9l6.79-20.745-17.69-12.8,21.83,0.042Zm-82,0,6.71,20.771,21.83-.042-17.69,12.8,6.79,20.745-17.64-12.863L1001.99,326.9l6.79-20.745-17.687-12.8,21.827,0.042Zm-81.995,0L944.33,293.4l21.827-.042-17.683,12.8,6.785,20.745-17.634-12.863L919.991,326.9l6.785-20.745-17.683-12.8L930.92,293.4Zm-82,0L862.33,293.4l21.827-.042-17.683,12.8,6.785,20.745-17.634-12.863L837.991,326.9l6.785-20.745-17.683-12.8L848.92,293.4Z"/>
  <path id="Color_Fill_4_copy_2" data-name="Color Fill 4 copy 2" class="cls-3" d="M680.625,182.313A118.688,118.688,0,1,1,561.906,301,118.7,118.7,0,0,1,680.625,182.313Z"/>
  <circle id="Color_Fill_4_copy" data-name="Color Fill 4 copy" class="cls-4" cx="680.25" cy="300.61" r="85.75"/>
  <circle id="Color_Fill_4" data-name="Color Fill 4" class="cls-5" cx="679.485" cy="299.86" r="72.985"/>
  <path id="Color_Fill_2" data-name="Color Fill 2" class="cls-1" d="M687.142,241.116c24.14-.772,50.634,32,49.487,52.575-1.163,20.862-27.141,54.49-49.856,54.182-2.8,10.228-11.8,19.694-22.724,17.288-13.1-2.887-19.795-9.858-19.795-9.858l-0.768-3.339-4.949-5.75a20.819,20.819,0,0,1-4.18-.769c-5.5-4.655-9.073-16.43-9.073-16.43s2.75-11.5,12.372-17.251c-4.674-6.572-22.9-54.466,23.918-55.04C665.811,250.622,670.93,241.634,687.142,241.116Z"/>
  <path id="Color_Fill_1" data-name="Color Fill 1" class="cls-2" d="M686.773,244.906c22.467-1.335,48.069,30,46.116,49.178s-28.022,51-49.191,50.715c-3.747,9.7-8.268,18.387-18.446,16.137-12.21-2.7-18.447-9.221-18.447-9.221v-3.842l-4.611-5.379a9.019,9.019,0,0,1-4.612,0c-5.124-4.354-8.454-15.368-8.454-15.368s2.562-10.758,11.529-16.137c-4.356-6.147-22.432-50.1,21.52-50.715,9.1-.128,14.787,11.563,17.678,16.9,2.532,4.679,1.295,13.985-4.611,18.442-4.767,3.6-14.508,4.518-19.984-.768s-6.931-9.678-7.686-13.832c-2.455,3.587,2.721,14.048,6.149,16.137,12.085,7.362,21.064,1.765,23.058.768,3.364,4.111,5.621,6.858,9.992,9.221,6.105,3.3,15.768,4.776,20.752,3.842,2.554,5.668,9.992,6.147,9.992,6.147s-5.464-3.8-6.149-6.915c8.456-1.8,9.353-6.766,14.6-10.758-3.139-.193-8.029,6.439-16.14,7.684-17.513,2.689-26.591-3.72-29.207-10.757,4.61-4.173,4.961-13.623,2.306-19.211-4.5-9.476-9.736-16.777-16.91-19.21C670.376,251.054,678.673,245.388,686.773,244.906Z"/>
  <path id="Color_Fill_3" data-name="Color Fill 3" class="cls-1" d="M691.822,250.655c5.108,1.417,6.323,3.683,4.743,4.805-1.076.764-3.467,1.022-5.894,0.739-2.8-.325-6.207-1.445-7.682-2.952C680.4,250.6,684.629,248.66,691.822,250.655Z"/>
  <path id="Color_Fill_3_copy" data-name="Color Fill 3 copy" class="cls-1" d="M663.481,263.838c3.144,0.839,3.892,2.182,2.919,2.847a6.2,6.2,0,0,1-3.627.438,9.132,9.132,0,0,1-4.727-1.749C656.451,263.8,659.055,262.655,663.481,263.838Z"/>
</svg>
