<svg xmlns="http://www.w3.org/2000/svg" width="600" height="600" viewBox="0 0 600 600">
  <defs>
    <style>
      .cls-1 {
        fill: #fff;
        stroke: #fff;
        stroke-width: 3.68px;
      }

      .cls-2 {
        fill-rule: evenodd;
      }
    </style>
  </defs>
  <circle id="Color_Fill_4_copy" data-name="Color Fill 4 copy" cx="300" cy="300" r="300"/>
  <circle id="Color_Fill_4" data-name="Color Fill 4" class="cls-1" cx="298" cy="298" r="248"/>
  <path id="Color_Fill_1" data-name="Color Fill 1" class="cls-2" d="M325.581,103.13c77.01-4.577,164.764,102.817,158.068,168.546S387.6,446.476,315.043,445.488c-12.843,33.249-28.34,63.018-63.227,55.3-41.851-9.253-63.227-31.6-63.227-31.6V456.022l-15.807-18.434a30.887,30.887,0,0,1-15.807,0C139.412,422.665,128,384.917,128,384.917s8.782-36.869,39.517-55.3C152.584,308.545,90.634,153.147,241.278,155.8c30.685,0.541,52.664,39.294,59.613,58.918,6.719,18.973,7.378,42.053-12.867,57.327-16.337,12.326-49.726,15.483-68.5-2.633s-25.716-28.272-28.3-42.506c-8.414,12.293,3.563,55.789,15.313,62.946,41.424,25.233,77.489,12.827,84.322,9.412,11.531,14.088,23.239,26.032,38.723,33.12,27.653,12.658,58.6,10.325,75.419,5.616s39.548-18.6,56.939-44.89C432.821,308.011,418.062,313.049,390,315c-48.986,3.406-60.455-13.051-72.328-36.59,15.8-14.3,14.907-57.565,5.8-76.715-15.437-32.478-36.895-55.737-61.484-64.076C276.922,113.917,297.819,104.78,325.581,103.13Z"/>
</svg>
